<?xml version="1.0" encoding="UTF-8"?>
<svg id="_图层_1" data-name="图层_1" xmlns="http://www.w3.org/2000/svg" version="1.1" viewBox="0 0 560 390">
  <!-- Generator: Adobe Illustrator 30.1.0, SVG Export Plug-In . SVG Version: 2.1.1 Build 136)  -->
  <defs>
    <style>
      .st0 {
        font-size: 7.4px;
      }

      .st0, .st1, .st2, .st3, .st4, .st5, .st6, .st7, .st8, .st9 {
        isolation: isolate;
      }

      .st0, .st1, .st2, .st3, .st7, .st8 {
        font-family: Helvetica, Helvetica;
      }

      .st0, .st9 {
        fill: #202124;
      }

      .st10 {
        stroke: #e5e7e8;
        stroke-width: .32px;
      }

      .st10, .st11, .st12, .st13, .st14 {
        fill: none;
        stroke-linecap: round;
      }

      .st1, .st2 {
        font-size: 4.8px;
      }

      .st1, .st3, .st7, .st8 {
        fill: #70757a;
      }

      .st2 {
        fill: #9b6b33;
      }

      .st15, .st11, .st14, .st16 {
        stroke: #176b75;
      }

      .st15, .st16 {
        fill: #eef4f8;
      }

      .st11, .st14 {
        stroke-linejoin: round;
        stroke-width: 1.55px;
      }

      .st3 {
        font-size: 5.3px;
      }

      .st17, .st18, .st19 {
        fill: #fff;
      }

      .st17, .st12, .st19 {
        stroke: #5f8194;
      }

      .st4 {
        fill: #f8f1e7;
        opacity: .24;
      }

      .st20, .st21 {
        fill: #f8eeee;
        stroke: #9a4a42;
      }

      .st5 {
        fill: #176b75;
      }

      .st5, .st6 {
        font-size: 5.6px;
      }

      .st5, .st6, .st9 {
        font-family: Helvetica-Bold, Helvetica;
        font-weight: 700;
      }

      .st12 {
        stroke-width: .4px;
      }

      .st6 {
        fill: #9a4a42;
      }

      .st13 {
        stroke: #202124;
        stroke-width: .55px;
      }

      .st7 {
        font-size: 5.8px;
      }

      .st21, .st19, .st16 {
        stroke-width: 1.05px;
      }

      .st8 {
        font-size: 5.2px;
      }

      .st9 {
        font-size: 11px;
      }

      .st14 {
        stroke-dasharray: 3 2;
      }
    </style>
  </defs>
  <rect class="st18" width="560" height="390"/>
  <rect class="st18" width="560" height="390"/>
  <text class="st9" transform="translate(34 27)"><tspan x="0" y="0">a</tspan></text>
  <text class="st0" transform="translate(51 26)"><tspan x="0" y="0">Qwen3.5-27B</tspan></text>
  <text class="st7" transform="translate(51 35)"><tspan x="0" y="0">endpoint zoom</tspan></text>
  <line class="st10" x1="87" y1="160" x2="87" y2="60"/>
  <text class="st1" transform="translate(82.33 170)"><tspan x="0" y="0">81.9</tspan></text>
  <line class="st10" x1="163" y1="160" x2="163" y2="60"/>
  <text class="st1" transform="translate(158.33 170)"><tspan x="0" y="0">82.1</tspan></text>
  <line class="st10" x1="239" y1="160" x2="239" y2="60"/>
  <text class="st1" transform="translate(234.33 170)"><tspan x="0" y="0">82.3</tspan></text>
  <line class="st10" x1="68" y1="141.25" x2="258" y2="141.25"/>
  <text class="st1" transform="translate(54.01 143.05)"><tspan x="0" y="0">11.8</tspan></text>
  <line class="st10" x1="68" y1="110" x2="258" y2="110"/>
  <text class="st1" transform="translate(54.01 111.8)"><tspan x="0" y="0">11.9</tspan></text>
  <line class="st10" x1="68" y1="78.75" x2="258" y2="78.75"/>
  <text class="st1" transform="translate(53.66 80.55)"><tspan x="0" y="0">12.0</tspan></text>
  <line class="st13" x1="68" y1="160" x2="258" y2="160"/>
  <line class="st13" x1="68" y1="160" x2="68" y2="60"/>
  <path class="st11" d="M226.28,78.75l-119.62,62.5"/>
  <circle class="st16" cx="226.28" cy="78.75" r="2.7"/>
  <line class="st12" x1="226.28" y1="78.75" x2="232.28" y2="63.75"/>
  <text class="st5" transform="translate(234.28 65.75)"><tspan x="0" y="0">gate 80%</tspan></text>
  <circle class="st16" cx="106.66" cy="141.25" r="2.7"/>
  <line class="st12" x1="106.66" y1="141.25" x2="112.66" y2="154.25"/>
  <text class="st5" transform="translate(114.66 156.25)"><tspan x="0" y="0">gate 80% + INT8</tspan></text>
  <text class="st8" transform="translate(138 187)"><tspan x="0" y="0">TH ASR removed (%)</tspan></text>
  <text class="st8" transform="translate(68 58)"><tspan x="0" y="0">TB refusal (%)</tspan></text>
  <text class="st9" transform="translate(302 27)"><tspan x="0" y="0">b</tspan></text>
  <text class="st0" transform="translate(319 26)"><tspan x="0" y="0">Qwen3.5-4B</tspan></text>
  <text class="st7" transform="translate(319 35)"><tspan x="0" y="0">steeper, non-degenerate</tspan></text>
  <rect class="st4" x="336" y="60" width="190" height="27.78"/>
  <line class="st10" x1="336" y1="160" x2="336" y2="60"/>
  <text class="st1" transform="translate(333.33 170)"><tspan x="0" y="0">50</tspan></text>
  <line class="st10" x1="431" y1="160" x2="431" y2="60"/>
  <text class="st1" transform="translate(428.33 170)"><tspan x="0" y="0">75</tspan></text>
  <line class="st10" x1="526" y1="160" x2="526" y2="60"/>
  <text class="st1" transform="translate(522 170)"><tspan x="0" y="0">100</tspan></text>
  <line class="st10" x1="336" y1="157.22" x2="526" y2="157.22"/>
  <text class="st1" transform="translate(328.33 159.02)"><tspan x="0" y="0">5</tspan></text>
  <line class="st10" x1="336" y1="129.44" x2="526" y2="129.44"/>
  <text class="st1" transform="translate(325.66 131.24)"><tspan x="0" y="0">15</tspan></text>
  <line class="st10" x1="336" y1="87.78" x2="526" y2="87.78"/>
  <text class="st1" transform="translate(325.66 89.58)"><tspan x="0" y="0">30</tspan></text>
  <line class="st10" x1="336" y1="60" x2="526" y2="60"/>
  <text class="st1" transform="translate(325.66 61.8)"><tspan x="0" y="0">40</tspan></text>
  <line class="st13" x1="336" y1="160" x2="526" y2="160"/>
  <line class="st13" x1="336" y1="160" x2="336" y2="60"/>
  <path class="st11" d="M350.17,148.06l85-51.95,26.01,14.17,39.98,9.72,13.58-52.5"/>
  <circle class="st16" cx="350.17" cy="148.06" r="2.55"/>
  <line class="st12" x1="350.17" y1="148.06" x2="354.17" y2="135.06"/>
  <text class="st5" transform="translate(344.31 131.24)"><tspan x="0" y="0">gate 60%</tspan></text>
  <circle class="st16" cx="435.17" cy="96.11" r="2.55"/>
  <line class="st12" x1="435.17" y1="96.11" x2="428.51" y2="78.75"/>
  <text class="st5" transform="translate(415.15 76.05)"><tspan x="0" y="0">soft-shrink</tspan></text>
  <circle class="st16" cx="461.18" cy="110.28" r="2.55"/>
  <line class="st12" x1="461.18" y1="110.28" x2="456.61" y2="126.23"/>
  <text class="st5" transform="translate(446.91 131.33)"><tspan x="0" y="0">target-all</tspan></text>
  <circle class="st16" cx="501.16" cy="120" r="2.55"/>
  <line class="st12" x1="501.16" y1="120" x2="503.71" y2="132.47"/>
  <text class="st5" transform="translate(496.66 138.72)"><tspan x="0" y="0">rank 64</tspan></text>
  <circle class="st16" cx="514.74" cy="67.5" r="2.55"/>
  <line class="st12" x1="514.74" y1="67.5" x2="491.43" y2="82.11"/>
  <text class="st5" transform="translate(478.84 87.78)"><tspan x="0" y="0">low-score</tspan></text>
  <text class="st8" transform="translate(406 187)"><tspan x="0" y="0">TH ASR removed (%)</tspan></text>
  <text class="st8" transform="translate(336 58)"><tspan x="0" y="0">TB refusal (%)</tspan></text>
  <text class="st2" transform="translate(344 68)"><tspan x="0" y="0">high TB cost</tspan></text>
  <text class="st9" transform="translate(34 205)"><tspan x="0" y="0">c</tspan></text>
  <text class="st0" transform="translate(51 204)"><tspan x="0" y="0">Gemma-3-4B-it</tspan></text>
  <text class="st7" transform="translate(51 213)"><tspan x="0" y="0">low-TB operator band</tspan></text>
  <line class="st10" x1="68" y1="338" x2="68" y2="238"/>
  <text class="st1" transform="translate(65.33 348)"><tspan x="0" y="0">74</tspan></text>
  <line class="st10" x1="163" y1="338" x2="163" y2="238"/>
  <text class="st1" transform="translate(160.33 348)"><tspan x="0" y="0">80</tspan></text>
  <line class="st10" x1="258" y1="338" x2="258" y2="238"/>
  <text class="st1" transform="translate(255.33 348)"><tspan x="0" y="0">86</tspan></text>
  <line class="st10" x1="68" y1="323.71" x2="258" y2="323.71"/>
  <text class="st1" transform="translate(60.33 325.51)"><tspan x="0" y="0">5</tspan></text>
  <line class="st10" x1="68" y1="276.1" x2="258" y2="276.1"/>
  <text class="st1" transform="translate(60.33 277.9)"><tspan x="0" y="0">6</tspan></text>
  <line class="st10" x1="68" y1="228.48" x2="258" y2="228.48"/>
  <text class="st1" transform="translate(60.33 230.28)"><tspan x="0" y="0">7</tspan></text>
  <line class="st13" x1="68" y1="338" x2="258" y2="338"/>
  <line class="st13" x1="68" y1="338" x2="68" y2="238"/>
  <path class="st11" d="M131.43,252.29l-14.64,38.09,107.4-28.57,6.5,57.14"/>
  <circle class="st16" cx="131.43" cy="252.29" r="2.55"/>
  <line class="st12" x1="131.43" y1="252.29" x2="119.34" y2="239.89"/>
  <text class="st5" transform="translate(103.96 238)"><tspan x="0" y="0">conservative</tspan></text>
  <circle class="st16" cx="116.79" cy="290.38" r="2.55"/>
  <line class="st12" x1="116.79" y1="290.38" x2="97.64" y2="303.28"/>
  <text class="st5" transform="translate(80.89 309.12)"><tspan x="0" y="0">hard-shrink</tspan></text>
  <circle class="st16" cx="224.19" cy="261.81" r="2.55"/>
  <line class="st12" x1="224.19" y1="261.81" x2="229.19" y2="250.81"/>
  <text class="st5" transform="translate(217.79 249.54)"><tspan x="0" y="0">quantized</tspan></text>
  <circle class="st16" cx="230.69" cy="318.95" r="2.55"/>
  <line class="st12" x1="230.69" y1="318.95" x2="235.69" y2="329.95"/>
  <text class="st5" transform="translate(224.19 334.4)"><tspan x="0" y="0">soft-shrink</tspan></text>
  <text class="st8" transform="translate(138 365)"><tspan x="0" y="0">TH ASR removed (%)</tspan></text>
  <text class="st8" transform="translate(68 236)"><tspan x="0" y="0">TB refusal (%)</tspan></text>
  <text class="st9" transform="translate(302 205)"><tspan x="0" y="0">d</tspan></text>
  <text class="st0" transform="translate(319 204)"><tspan x="0" y="0">Llama3-8B</tspan></text>
  <text class="st7" transform="translate(319 213)"><tspan x="0" y="0">boundary curve</tspan></text>
  <rect class="st4" x="336" y="238" width="190" height="11.54"/>
  <line class="st10" x1="336" y1="338" x2="336" y2="238"/>
  <text class="st1" transform="translate(333.33 348)"><tspan x="0" y="0">36</tspan></text>
  <line class="st10" x1="428.43" y1="338" x2="428.43" y2="238"/>
  <text class="st1" transform="translate(425.76 348)"><tspan x="0" y="0">45</tspan></text>
  <line class="st10" x1="520.86" y1="338" x2="520.86" y2="238"/>
  <text class="st1" transform="translate(518.2 348)"><tspan x="0" y="0">54</tspan></text>
  <line class="st10" x1="336" y1="338" x2="526" y2="338"/>
  <text class="st1" transform="translate(328.33 339.8)"><tspan x="0" y="0">7</tspan></text>
  <line class="st10" x1="336" y1="307.23" x2="526" y2="307.23"/>
  <text class="st1" transform="translate(325.66 309.03)"><tspan x="0" y="0">15</tspan></text>
  <line class="st10" x1="336" y1="268.77" x2="526" y2="268.77"/>
  <text class="st1" transform="translate(325.66 270.57)"><tspan x="0" y="0">25</tspan></text>
  <line class="st10" x1="336" y1="238" x2="526" y2="238"/>
  <text class="st1" transform="translate(325.66 239.8)"><tspan x="0" y="0">33</tspan></text>
  <line class="st13" x1="336" y1="338" x2="526" y2="338"/>
  <line class="st13" x1="336" y1="338" x2="336" y2="238"/>
  <path class="st14" d="M342.49,336.85l90.81-14.23-27.03-8.47-20.54,1.16,62.7-25,68.11-49.62,6.49,6.54"/>
  <circle class="st19" cx="342.49" cy="336.85" r="2.45"/>
  <line class="st12" x1="342.49" y1="336.85" x2="347.62" y2="318.95"/>
  <text class="st5" transform="translate(338.46 316.6)"><tspan x="0" y="0">gate 40%</tspan></text>
  <circle class="st21" cx="433.3" cy="322.62" r="2.45"/>
  <circle class="st21" cx="406.27" cy="314.15" r="2.45"/>
  <circle class="st21" cx="385.73" cy="315.31" r="2.45"/>
  <circle class="st21" cx="448.43" cy="290.31" r="2.45"/>
  <line class="st12" x1="448.43" y1="290.31" x2="454.43" y2="276.31"/>
  <text class="st6" transform="translate(444.22 271.79)"><tspan x="0" y="0">gate 70%</tspan></text>
  <circle class="st21" cx="516.54" cy="240.69" r="2.45"/>
  <line class="st12" x1="516.54" y1="240.69" x2="480.55" y2="244.78"/>
  <text class="st6" transform="translate(467.71 250.81)"><tspan x="0" y="0">gate 75%</tspan></text>
  <circle class="st21" cx="523.03" cy="247.23" r="2.45"/>
  <line class="st12" x1="523.03" y1="247.23" x2="520.86" y2="264.36"/>
  <text class="st6" transform="translate(508.63 270.57)"><tspan x="0" y="0">gate 80%</tspan></text>
  <text class="st8" transform="translate(406 365)"><tspan x="0" y="0">TH ASR removed (%)</tspan></text>
  <text class="st8" transform="translate(336 236)"><tspan x="0" y="0">TB refusal (%)</tspan></text>
  <text class="st2" transform="translate(344 246)"><tspan x="0" y="0">high TB cost</tspan></text>
  <text class="st8" transform="translate(34 376)"><tspan x="0" y="0">point labels: SAC gate budget / operator</tspan></text>
  <circle class="st15" cx="194" cy="374" r="2.7"/>
  <text class="st3" transform="translate(201 376)"><tspan x="0" y="0">stable utility</tspan></text>
  <circle class="st17" cx="278" cy="374" r="2.7"/>
  <text class="st3" transform="translate(285 376)"><tspan x="0" y="0">utility cost</tspan></text>
  <circle class="st20" cx="356" cy="374" r="2.7"/>
  <text class="st3" transform="translate(363 376)"><tspan x="0" y="0">large MMLU drop</tspan></text>
</svg>