<?xml version="1.0" encoding="UTF-8"?>
<svg id="_图层_1" data-name="图层_1" xmlns="http://www.w3.org/2000/svg" version="1.1" viewBox="0 0 560 390">
  <!-- Generator: Adobe Illustrator 30.1.0, SVG Export Plug-In . SVG Version: 2.1.1 Build 136)  -->
  <defs>
    <style>
      .st0 {
        font-size: 7.4px;
      }

      .st0, .st1, .st2, .st3, .st4, .st5, .st6, .st7, .st8, .st9, .st10 {
        isolation: isolate;
      }

      .st0, .st1, .st2, .st3, .st4, .st8, .st9 {
        font-family: Helvetica, Helvetica;
      }

      .st0, .st10 {
        fill: #202124;
      }

      .st11 {
        stroke: #e5e7e8;
        stroke-width: .32px;
      }

      .st11, .st12, .st13, .st14, .st15 {
        fill: none;
        stroke-linecap: round;
      }

      .st1, .st2 {
        font-size: 4.8px;
      }

      .st1, .st3, .st4, .st8, .st9 {
        fill: #70757a;
      }

      .st2 {
        fill: #9b6b33;
      }

      .st16, .st12, .st15, .st17 {
        stroke: #176b75;
      }

      .st16, .st17 {
        fill: #eef4f8;
      }

      .st12, .st15 {
        stroke-linejoin: round;
        stroke-width: 1.55px;
      }

      .st3 {
        font-size: 5.3px;
      }

      .st4 {
        font-size: 4.7px;
      }

      .st18, .st19, .st20, .st21 {
        fill: #fff;
      }

      .st18, .st13, .st20 {
        stroke: #5f8194;
      }

      .st5 {
        fill: #f8f1e7;
        opacity: .24;
      }

      .st22, .st23 {
        fill: #f8eeee;
        stroke: #9a4a42;
      }

      .st6 {
        fill: #176b75;
      }

      .st6, .st7 {
        font-size: 5.6px;
      }

      .st6, .st7, .st10 {
        font-family: Helvetica-Bold, Helvetica;
        font-weight: 700;
      }

      .st13 {
        stroke-width: .4px;
      }

      .st7 {
        fill: #9a4a42;
      }

      .st14 {
        stroke: #202124;
        stroke-width: .55px;
      }

      .st8 {
        font-size: 5.8px;
      }

      .st23, .st20, .st17 {
        stroke-width: 1.05px;
      }

      .st9 {
        font-size: 5.2px;
      }

      .st10 {
        font-size: 11px;
      }

      .st21 {
        stroke: #93999e;
        stroke-width: .9px;
      }

      .st15 {
        stroke-dasharray: 3 2;
      }
    </style>
  </defs>
  <rect class="st19" width="560" height="390"/>
  <text class="st10" transform="translate(34 27)"><tspan x="0" y="0">a</tspan></text>
  <text class="st0" transform="translate(51 26)"><tspan x="0" y="0">Qwen3.5-27B</tspan></text>
  <text class="st8" transform="translate(51 35)"><tspan x="0" y="0">endpoint zoom</tspan></text>
  <line class="st11" x1="87" y1="160" x2="87" y2="60"/>
  <text class="st1" transform="translate(82.33 170)"><tspan x="0" y="0">81.9</tspan></text>
  <line class="st11" x1="163" y1="160" x2="163" y2="60"/>
  <text class="st1" transform="translate(158.33 170)"><tspan x="0" y="0">82.1</tspan></text>
  <line class="st11" x1="239" y1="160" x2="239" y2="60"/>
  <text class="st1" transform="translate(234.33 170)"><tspan x="0" y="0">82.3</tspan></text>
  <line class="st11" x1="68" y1="141.25" x2="258" y2="141.25"/>
  <text class="st1" transform="translate(54.01 143.05)"><tspan x="0" y="0">.118</tspan></text>
  <line class="st11" x1="68" y1="110" x2="258" y2="110"/>
  <text class="st1" transform="translate(54.01 111.8)"><tspan x="0" y="0">.119</tspan></text>
  <line class="st11" x1="68" y1="78.75" x2="258" y2="78.75"/>
  <text class="st1" transform="translate(53.66 80.55)"><tspan x="0" y="0">.120</tspan></text>
  <line class="st14" x1="68" y1="160" x2="258" y2="160"/>
  <line class="st14" x1="68" y1="160" x2="68" y2="60"/>
  <path class="st12" d="M226.28,78.75l-119.62,62.5"/>
  <circle class="st17" cx="226.28" cy="78.75" r="2.7"/>
  <line class="st13" x1="225.98" y1="78.75" x2="212.69" y2="68.19"/>
  <text class="st6" transform="translate(201.74 66.97)"><tspan x="0" y="0">gate 80%</tspan></text>
  <circle class="st17" cx="106.66" cy="141.25" r="2.7"/>
  <line class="st13" x1="106.66" y1="141.25" x2="112.66" y2="154.25"/>
  <text class="st6" transform="translate(114.66 156.25)"><tspan x="0" y="0">gate 80% + INT8</tspan></text>
  <text class="st9" transform="translate(138 187)"><tspan x="0" y="0">TH ASR removed (%)</tspan></text>
  <text class="st9" transform="translate(68 58)"><tspan x="0" y="0">TB refusal</tspan></text>
  <text class="st10" transform="translate(302 27)"><tspan x="0" y="0">b</tspan></text>
  <text class="st0" transform="translate(319 26)"><tspan x="0" y="0">Qwen3.5-4B</tspan></text>
  <text class="st8" transform="translate(319 35)"><tspan x="0" y="0">steeper frontier</tspan></text>
  <rect class="st5" x="336" y="60" width="190" height="33.33"/>
  <line class="st11" x1="336" y1="160" x2="336" y2="60"/>
  <text class="st1" transform="translate(334.67 170)"><tspan x="0" y="0">0</tspan></text>
  <line class="st11" x1="431" y1="160" x2="431" y2="60"/>
  <text class="st1" transform="translate(428.33 170)"><tspan x="0" y="0">50</tspan></text>
  <line class="st11" x1="526" y1="160" x2="526" y2="60"/>
  <text class="st1" transform="translate(522 170)"><tspan x="0" y="0">100</tspan></text>
  <line class="st11" x1="336" y1="160" x2="526" y2="160"/>
  <text class="st1" transform="translate(328.33 161.8)"><tspan x="0" y="0">0</tspan></text>
  <line class="st11" x1="336" y1="126.67" x2="526" y2="126.67"/>
  <text class="st1" transform="translate(324.33 128.47)"><tspan x="0" y="0">.15</tspan></text>
  <line class="st11" x1="336" y1="93.33" x2="526" y2="93.33"/>
  <text class="st1" transform="translate(324.33 95.13)"><tspan x="0" y="0">.30</tspan></text>
  <line class="st11" x1="336" y1="60" x2="526" y2="60"/>
  <text class="st1" transform="translate(324.33 61.8)"><tspan x="0" y="0">.45</tspan></text>
  <line class="st14" x1="336" y1="160" x2="526" y2="160"/>
  <line class="st14" x1="336" y1="160" x2="336" y2="60"/>
  <circle class="st21" cx="336" cy="149.33" r="2.35"/>
  <text class="st4" transform="translate(340 152.33)"><tspan x="0" y="0">backdoor</tspan></text>
  <path class="st12" d="M438.08,141.56l42.51-41.56,12.22-7.56,27.56-15.33"/>
  <circle class="st17" cx="438.08" cy="141.56" r="2.95"/>
  <line class="st13" x1="438.08" y1="141.56" x2="421.08" y2="127.56"/>
  <text class="st6" transform="translate(408.78 126.67)"><tspan x="0" y="0">gate 60%</tspan></text>
  <circle class="st17" cx="480.59" cy="100" r="2.95"/>
  <line class="st13" x1="480.59" y1="100" x2="446.59" y2="85"/>
  <text class="st6" transform="translate(433.46 83.38)"><tspan x="0" y="0">soft-shrink</tspan></text>
  <circle class="st17" cx="492.81" cy="92.44" r="2.95"/>
  <line class="st13" x1="492.81" y1="92.44" x2="496.81" y2="80.44"/>
  <text class="st6" transform="translate(485.78 78.17)"><tspan x="0" y="0">gate 70%</tspan></text>
  <circle class="st17" cx="520.37" cy="77.11" r="2.95"/>
  <line class="st13" x1="520.37" y1="77.11" x2="501.08" y2="65.24"/>
  <text class="st6" transform="translate(482.37 63.11)"><tspan x="0" y="0">drop low-score</tspan></text>
  <text class="st9" transform="translate(406 187)"><tspan x="0" y="0">TH ASR removed (%)</tspan></text>
  <text class="st9" transform="translate(336 58)"><tspan x="0" y="0">TB refusal</tspan></text>
  <text class="st2" transform="translate(344 68)"><tspan x="0" y="0">high TB cost</tspan></text>
  <text class="st10" transform="translate(34 205)"><tspan x="0" y="0">c</tspan></text>
  <text class="st0" transform="translate(51 204)"><tspan x="0" y="0">Gemma-3-4B-it</tspan></text>
  <text class="st8" transform="translate(51 213)"><tspan x="0" y="0">low-TB operator band</tspan></text>
  <line class="st11" x1="68" y1="338" x2="68" y2="238"/>
  <text class="st1" transform="translate(65.33 348)"><tspan x="0" y="0">74</tspan></text>
  <line class="st11" x1="163" y1="338" x2="163" y2="238"/>
  <text class="st1" transform="translate(160.33 348)"><tspan x="0" y="0">80</tspan></text>
  <line class="st11" x1="258" y1="338" x2="258" y2="238"/>
  <text class="st1" transform="translate(255.33 348)"><tspan x="0" y="0">86</tspan></text>
  <line class="st11" x1="68" y1="323.71" x2="258" y2="323.71"/>
  <text class="st1" transform="translate(56.33 325.51)"><tspan x="0" y="0">.05</tspan></text>
  <line class="st11" x1="68" y1="276.1" x2="258" y2="276.1"/>
  <text class="st1" transform="translate(56.33 277.9)"><tspan x="0" y="0">.06</tspan></text>
  <line class="st11" x1="68" y1="228.48" x2="258" y2="228.48"/>
  <text class="st1" transform="translate(56.33 230.28)"><tspan x="0" y="0">.07</tspan></text>
  <line class="st14" x1="68" y1="338" x2="258" y2="338"/>
  <line class="st14" x1="68" y1="338" x2="68" y2="238"/>
  <path class="st12" d="M131.43,252.29l-14.64,38.09,107.4-28.57,6.5,57.14"/>
  <circle class="st17" cx="131.43" cy="252.29" r="2.55"/>
  <line class="st13" x1="131.43" y1="252.29" x2="113.43" y2="240.29"/>
  <text class="st6" transform="translate(99.38 238)"><tspan x="0" y="0">conservative</tspan></text>
  <circle class="st17" cx="116.79" cy="290.38" r="2.55"/>
  <line class="st13" x1="116.79" y1="290.38" x2="92.79" y2="302.38"/>
  <text class="st6" transform="translate(81.16 308.19)"><tspan x="0" y="0">hard-shrink</tspan></text>
  <circle class="st17" cx="224.19" cy="261.81" r="2.55"/>
  <line class="st13" x1="224.19" y1="261.81" x2="229.19" y2="250.81"/>
  <text class="st6" transform="translate(220.21 249)"><tspan x="0" y="0">quantized</tspan></text>
  <circle class="st17" cx="230.69" cy="318.95" r="2.55"/>
  <line class="st13" x1="230.69" y1="318.95" x2="235.69" y2="329.95"/>
  <text class="st6" transform="translate(224.19 334.86)"><tspan x="0" y="0">soft-shrink</tspan></text>
  <text class="st9" transform="translate(138 365)"><tspan x="0" y="0">TH ASR removed (%)</tspan></text>
  <text class="st9" transform="translate(68 236)"><tspan x="0" y="0">TB refusal</tspan></text>
  <text class="st10" transform="translate(302 205)"><tspan x="0" y="0">d</tspan></text>
  <text class="st0" transform="translate(319 204)"><tspan x="0" y="0">Llama3-8B</tspan></text>
  <text class="st8" transform="translate(319 213)"><tspan x="0" y="0">boundary curve</tspan></text>
  <rect class="st5" x="336" y="238" width="190" height="11.54"/>
  <line class="st11" x1="336" y1="338" x2="336" y2="238"/>
  <text class="st1" transform="translate(333.33 348)"><tspan x="0" y="0">36</tspan></text>
  <line class="st11" x1="428.43" y1="338" x2="428.43" y2="238"/>
  <text class="st1" transform="translate(425.76 348)"><tspan x="0" y="0">45</tspan></text>
  <line class="st11" x1="520.86" y1="338" x2="520.86" y2="238"/>
  <text class="st1" transform="translate(518.2 348)"><tspan x="0" y="0">54</tspan></text>
  <line class="st11" x1="336" y1="338" x2="526" y2="338"/>
  <text class="st1" transform="translate(324.33 339.8)"><tspan x="0" y="0">.07</tspan></text>
  <line class="st11" x1="336" y1="307.23" x2="526" y2="307.23"/>
  <text class="st1" transform="translate(324.33 309.03)"><tspan x="0" y="0">.15</tspan></text>
  <line class="st11" x1="336" y1="268.77" x2="526" y2="268.77"/>
  <text class="st1" transform="translate(324.33 270.57)"><tspan x="0" y="0">.25</tspan></text>
  <line class="st11" x1="336" y1="238" x2="526" y2="238"/>
  <text class="st1" transform="translate(324.33 239.8)"><tspan x="0" y="0">.33</tspan></text>
  <line class="st14" x1="336" y1="338" x2="526" y2="338"/>
  <line class="st14" x1="336" y1="338" x2="336" y2="238"/>
  <path class="st15" d="M342.49,336.85l90.81-14.23-27.03-8.47-20.54,1.16,62.7-25,68.11-49.62,6.49,6.54"/>
  <circle class="st20" cx="342.49" cy="336.85" r="2.45"/>
  <line class="st13" x1="342.49" y1="336.85" x2="349.57" y2="317.76"/>
  <text class="st6" transform="translate(338.35 317.76)"><tspan x="0" y="0">gate 40%</tspan></text>
  <circle class="st23" cx="433.3" cy="322.62" r="2.45"/>
  <circle class="st23" cx="406.27" cy="314.15" r="2.45"/>
  <circle class="st23" cx="385.73" cy="315.31" r="2.45"/>
  <circle class="st23" cx="448.43" cy="290.31" r="2.45"/>
  <line class="st13" x1="448.43" y1="290.31" x2="454.43" y2="276.31"/>
  <text class="st7" transform="translate(438.08 274.53)"><tspan x="0" y="0">gate 70%</tspan></text>
  <circle class="st23" cx="516.54" cy="240.69" r="2.45"/>
  <line class="st13" x1="516.54" y1="240.69" x2="491.93" y2="246"/>
  <text class="st7" transform="translate(466.31 247.07)"><tspan x="0" y="0">gate 75%</tspan></text>
  <circle class="st23" cx="523.03" cy="247.23" r="2.45"/>
  <line class="st13" x1="522.75" y1="246.94" x2="519.54" y2="262.86"/>
  <text class="st7" transform="translate(505.13 268.77)"><tspan x="0" y="0">gate 80%</tspan></text>
  <text class="st9" transform="translate(406 365)"><tspan x="0" y="0">TH ASR removed (%)</tspan></text>
  <text class="st9" transform="translate(336 236)"><tspan x="0" y="0">TB refusal</tspan></text>
  <text class="st2" transform="translate(344 246)"><tspan x="0" y="0">high TB cost</tspan></text>
  <text class="st9" transform="translate(34 376)"><tspan x="0" y="0">point labels: SAC gate budget / operator</tspan></text>
  <circle class="st16" cx="194" cy="374" r="2.7"/>
  <text class="st3" transform="translate(201 376)"><tspan x="0" y="0">stable utility</tspan></text>
  <circle class="st18" cx="278" cy="374" r="2.7"/>
  <text class="st3" transform="translate(285 376)"><tspan x="0" y="0">utility cost</tspan></text>
  <circle class="st22" cx="356" cy="374" r="2.7"/>
  <text class="st3" transform="translate(363 376)"><tspan x="0" y="0">large MMLU drop</tspan></text>
</svg>