<?xml version="1.0" encoding="UTF-8"?>
<svg xmlns="http://www.w3.org/2000/svg" width="1672" height="560" viewBox="0 170 1672 560">
  <defs>
    <style>
      .cls-1 {
        fill: #e5f0e1;
        stroke: #5f765c;
      }

      .cls-1, .cls-2, .cls-3, .cls-4, .cls-5, .cls-6, .cls-7, .cls-8, .cls-9, .cls-10, .cls-11, .cls-12, .cls-13, .cls-14, .cls-15, .cls-16, .cls-17, .cls-18, .cls-19, .cls-20, .cls-21, .cls-22, .cls-23, .cls-24, .cls-25, .cls-26, .cls-27, .cls-28, .cls-29, .cls-30, .cls-31, .cls-32, .cls-33, .cls-34, .cls-35, .cls-36, .cls-37, .cls-38, .cls-39, .cls-40, .cls-41, .cls-42 {
        stroke-miterlimit: 10;
      }

      .cls-2, .cls-7 {
        stroke: #9a4a42;
      }

      .cls-2, .cls-9, .cls-19, .cls-25, .cls-28, .cls-33, .cls-38 {
        stroke-width: 1.25px;
      }

      .cls-2, .cls-19 {
        fill: #9a4a42;
      }

      .cls-3 {
        fill: #dce9d8;
      }

      .cls-3, .cls-15, .cls-27, .cls-32, .cls-36 {
        stroke: #5f765c;
      }

      .cls-4 {
        fill: #edd3d0;
      }

      .cls-4, .cls-34 {
        stroke: #9a4a42;
      }

      .cls-5, .cls-11, .cls-23 {
        stroke-dasharray: 12.73 12.73;
      }

      .cls-5, .cls-11, .cls-23, .cls-28, .cls-31, .cls-33 {
        fill: none;
      }

      .cls-5, .cls-21 {
        stroke: #9a4a42;
      }

      .cls-6 {
        stroke-dasharray: 6 2 6 2 6 2;
      }

      .cls-6, .cls-23, .cls-41 {
        stroke: #93999e;
      }

      .cls-6, .cls-41 {
        fill: #e7e8e8;
      }

      .cls-7 {
        fill: #9a4a42;
      }

      .cls-8 {
        fill: #e5f0e1;
        stroke: #5f765c;
      }

      .cls-9 {
        fill: #9b6b33;
        stroke: #9b6b33;
      }

      .cls-10 {
        fill: #dbe7ee;
        stroke: #176b75;
      }

      .cls-11, .cls-13 {
        stroke: #176b75;
      }

      .cls-43 {
        fill: #93999e;
      }

      .cls-12 {
        fill: #edd3d0;
        stroke: #9a4a42;
      }

      .cls-13, .cls-44 {
        fill: #dbe7ee;
      }

      .cls-14 {
        fill: #5f8194;
        stroke: #176b75;
      }

      .cls-15 {
        fill: #dce9d8;
      }

      .cls-16 {
        fill: #e5f0f3;
      }

      .cls-16, .cls-17, .cls-38 {
        stroke: #176b75;
      }

      .cls-17 {
        fill: #dbe7ee;
      }

      .cls-18, .cls-22, .cls-28 {
        stroke: #93999e;
      }

      .cls-18, .cls-39 {
        fill: #e7e8e8;
      }

      .cls-19 {
        stroke: #202124;
      }

      .cls-20 {
        fill: #9b6b33;
        stroke: #9b6b33;
      }

      .cls-21, .cls-45 {
        fill: #f5e4e2;
      }

      .cls-22, .cls-24, .cls-46, .cls-25, .cls-38 {
        fill: #fff;
      }

      .cls-24, .cls-25, .cls-31, .cls-33, .cls-39 {
        stroke: #464a4d;
      }

      .cls-26 {
        fill: #f4e8d4;
        stroke: #9b6b33;
      }

      .cls-27 {
        fill: #cbdc8f;
      }

      .cls-29 {
        fill: #e7e8e8;
        stroke: #93999e;
      }

      .cls-30 {
        fill: #dce9d8;
        stroke: #5f765c;
      }

      .cls-32 {
        fill: #dce9d8;
      }

      .cls-34 {
        fill: #f1e2cf;
      }

      .cls-35 {
        fill: #dbe7ee;
        stroke: #176b75;
      }

      .cls-36 {
        fill: #e5f0e1;
      }

      .cls-37 {
        fill: #5f765c;
        stroke: #5f765c;
      }

      .cls-47 {
        fill: #f4f8fa;
      }

      .cls-40 {
        fill: #e7e8e8;
        stroke: #93999e;
      }

      .cls-42 {
        fill: #f5e4e2;
        stroke: #9a4a42;
      }
    </style>
  </defs>
  <g id="_图层_2" data-name="图层 2">
    <g>
      <path class="cls-24" d="M292.72,719.44H39.18c-7.58,0-13.72-6.14-13.72-13.72V236.07c-.14-15.55-1.58-26.57,0-39.49.29-2.37.9-6.58,4.02-9.7,2.48-2.48,5.91-4.02,9.7-4.02h253.54c7.58,0,13.72,6.14,13.72,13.72v509.13c0,7.58-6.14,13.72-13.72,13.72Z"/>
      <path class="cls-24" d="M24.1,236.92h0s282.7.05,282.97.81"/>
    </g>
    <g>
      <path class="cls-24" d="M960.66,719.44h-253.54c-7.58,0-13.72-6.14-13.72-13.72V236.07c-.14-15.55-1.58-26.57,0-39.49.29-2.37.9-6.58,4.02-9.7,2.48-2.48,5.91-4.02,9.7-4.02h253.54c7.58,0,13.72,6.14,13.72,13.72v509.13c0,7.58-6.14,13.72-13.72,13.72Z"/>
      <path class="cls-24" d="M692.04,236.92h0s282.7.05,282.97.81"/>
    </g>
    <g>
      <path class="cls-24" d="M1288,719.44h-274.38c-8.2,0-14.85-6.14-14.85-13.72V236.07c-.15-15.55-1.71-26.57,0-39.49.31-2.37.97-6.58,4.35-9.7,2.69-2.48,6.4-4.02,10.5-4.02h274.38c8.2,0,14.85,6.14,14.85,13.72v509.13c0,7.58-6.65,13.72-14.85,13.72Z"/>
      <path class="cls-24" d="M997.29,236.92h0s305.94.05,306.24.81"/>
    </g>
    <g>
      <path class="cls-24" d="M1622.24,719.44h-253.54c-7.58,0-13.72-6.14-13.72-13.72V236.07c-.14-15.55-1.58-26.57,0-39.49.29-2.37.9-6.58,4.02-9.7,2.48-2.48,5.91-4.02,9.7-4.02h253.54c7.58,0,13.72,6.14,13.72,13.72v509.13c0,7.58-6.14,13.72-13.72,13.72Z"/>
      <path class="cls-24" d="M1353.62,236.92h0s282.7.05,282.97.81"/>
    </g>
    <g>
      <path class="cls-24" d="M640.17,719.44h-271.34c-8.11,0-14.68-6.14-14.68-13.72V236.07c-.15-15.55-1.69-26.57,0-39.49.31-2.37.96-6.58,4.3-9.7,2.66-2.48,6.33-4.02,10.38-4.02h271.34c8.11,0,14.68,6.14,14.68,13.72v509.13c0,7.58-6.57,13.72-14.68,13.72Z"/>
      <path class="cls-24" d="M352.68,236.92h0s302.56.05,302.85.81"/>
    </g>
  </g>
  <g id="_图层_3" data-name="图层 3">
    <g>
      <path class="cls-24" d="M91.79,624.47h-48.68c-1.45,0-2.63-3.53-2.63-7.88v-269.92c-.03-8.94-.3-15.27,0-22.69.06-1.36.17-3.78.77-5.58.48-1.43,1.14-2.31,1.86-2.31h48.68c1.45,0,2.63,3.53,2.63,7.88v292.62c0,4.35-1.18,7.88-2.63,7.88Z"/>
      <path class="cls-39" d="M203.16,591.08h-77.93c-2.33,0-4.22-2.68-4.22-5.99.11-65.39-.15-167.22,0-222.19-.05-1.97,1.38-6.15,4.22-5.99,0,0,77.93,0,77.93,0,2.33,0,4.22,2.68,4.22,5.99,0,74.06,0,148.13,0,222.19,0,3.31-1.89,5.99-4.22,5.99Z"/>
      <path class="cls-24" d="M284.43,624.47h-48.68c-1.45,0-2.63-3.53-2.63-7.88v-269.92c-.03-8.94-.3-15.27,0-22.69.06-1.36.17-3.78.77-5.58.48-1.43,1.14-2.31,1.86-2.31h48.68c1.45,0,2.63,3.53,2.63,7.88v292.62c0,4.35-1.18,7.88-2.63,7.88Z"/>
      <line class="cls-25" x1="94.43" y1="379.86" x2="120.49" y2="379.86"/>
      <line class="cls-25" x1="206.76" y1="379.86" x2="232.83" y2="379.86"/>
      <line class="cls-25" x1="94.43" y1="563.39" x2="120.49" y2="563.39"/>
      <line class="cls-25" x1="206.76" y1="563.39" x2="232.83" y2="563.39"/>
    </g>
    <rect class="cls-24" x="368.27" y="300.95" width="128" height="166.05" rx="6.14" ry="6.14"/>
    <rect class="cls-24" x="508.54" y="300.95" width="128" height="166.05" rx="6.14" ry="6.14"/>
    <rect class="cls-24" x="368.27" y="490.81" width="128" height="168.93" rx="6.14" ry="6.14"/>
    <rect class="cls-24" x="508.54" y="490.81" width="128" height="168.93" rx="6.14" ry="6.14"/>
    <rect class="cls-10" x="731.79" y="273.23" width="131.76" height="23.5" rx="6.07" ry="6.07"/>
    <rect class="cls-10" x="731.79" y="380.85" width="131.76" height="23.5" rx="6.07" ry="6.07"/>
    <rect class="cls-10" x="731.79" y="344.98" width="131.76" height="23.5" rx="6.07" ry="6.07"/>
    <rect class="cls-10" x="731.79" y="309.1" width="131.76" height="23.5" rx="6.07" ry="6.07"/>
    <rect class="cls-1" x="731.79" y="452.6" width="131.76" height="23.5" rx="6.07" ry="6.07"/>
    <rect class="cls-42" x="731.79" y="597.61" width="131.76" height="23.5" rx="6.07" ry="6.07"/>
    <rect class="cls-29" x="731.79" y="488.48" width="131.76" height="23.5" rx="6.07" ry="6.07"/>
    <rect class="cls-42" x="731.79" y="633.62" width="131.76" height="23.5" rx="6.07" ry="6.07"/>
    <rect class="cls-29" x="731.79" y="525.11" width="131.76" height="23.5" rx="6.07" ry="6.07"/>
    <rect class="cls-29" x="731.79" y="561.36" width="131.76" height="23.5" rx="6.07" ry="6.07"/>
    <rect class="cls-1" x="731.79" y="416.73" width="131.76" height="23.5" rx="6.07" ry="6.07"/>
    <g>
      <line class="cls-28" x1="897.44" y1="280.38" x2="898.46" y2="655.94"/>
      <polygon class="cls-43" points="888.47 653.04 898.49 670.29 908.42 652.99 888.47 653.04"/>
    </g>
    <g>
      <line class="cls-28" x1="309.6" y1="453.18" x2="336.48" y2="453.18"/>
      <polygon class="cls-43" points="333.56 463.15 350.83 453.18 333.56 443.2 333.56 463.15"/>
    </g>
    <g>
      <line class="cls-28" x1="656.21" y1="452.6" x2="683.09" y2="452.6"/>
      <polygon class="cls-43" points="680.17 462.57 697.44 452.6 680.17 442.63 680.17 462.57"/>
    </g>
    <g>
      <line class="cls-28" x1="953.77" y1="452.6" x2="980.64" y2="452.6"/>
      <polygon class="cls-43" points="977.72 462.57 994.99 452.6 977.72 442.63 977.72 462.57"/>
    </g>
    <g>
      <line class="cls-28" x1="1307.96" y1="453.37" x2="1334.84" y2="453.37"/>
      <polygon class="cls-43" points="1331.92 463.34 1349.19 453.37 1331.92 443.39 1331.92 463.34"/>
    </g>
    <rect class="cls-22" x="1012.7" y="269.03" width="79.56" height="407.58" rx="12.8" ry="12.8"/>
    <rect class="cls-22" x="1101.71" y="270.21" width="83.48" height="407.58" rx="12.8" ry="12.8"/>
    <rect class="cls-22" x="1199.31" y="269.03" width="88.08" height="407.58" rx="12.8" ry="12.8"/>
    <rect class="cls-22" x="1370.7" y="394.84" width="45.47" height="184.69" rx="4.83" ry="4.83"/>
    <rect class="cls-18" x="1437.69" y="394.84" width="75.98" height="196.08" rx="11.83" ry="11.83"/>
    <rect class="cls-22" x="1534.66" y="394.84" width="45.47" height="184.69" rx="4.83" ry="4.83"/>
    <line class="cls-28" x1="1418.05" y1="431.72" x2="1437.69" y2="431.72"/>
    <line class="cls-28" x1="1416.94" y1="552.94" x2="1436.57" y2="552.94"/>
    <line class="cls-28" x1="1515.16" y1="552.94" x2="1534.8" y2="552.94"/>
    <line class="cls-28" x1="1514.35" y1="431.72" x2="1533.98" y2="431.72"/>
    <path class="cls-38" d="M1608.59,464.18c-2.28-.16-2.66,1.75-6.4,3.3-4.27,1.77-6.09.24-7.79,2.02-.78.82-1.22,2.01-.87,8.52.25,4.71.15,7.12.87,9.3.41,1.24,1.27,3.73,3.45,6.16,1.24,1.38,4.25,4.74,8.97,5,5.06.28,8.6-3.21,9.87-4.46.47-.46,2.79-2.81,4.06-6.7.56-1.72.19-2.38.63-9.3.39-6.11.5-7.87-.75-9.04-1.53-1.42-3.03-.05-6.51-1.5-3.28-1.36-3.34-3.16-5.54-3.31Z"/>
  </g>
  <g id="_图层_4" data-name="图层 4">
    <line class="cls-31" x1="381.49" y1="431.7" x2="482.57" y2="431.7"/>
    <rect class="cls-17" x="45.72" y="322.77" width="43.08" height="12.02"/>
    <rect class="cls-17" x="45.72" y="340.64" width="43.08" height="12.02"/>
    <rect class="cls-17" x="45.72" y="358.51" width="43.08" height="12.02"/>
    <rect class="cls-17" x="45.72" y="376.38" width="43.08" height="12.02"/>
    <rect class="cls-17" x="45.72" y="394.24" width="43.08" height="12.02"/>
    <rect class="cls-17" x="45.72" y="412.11" width="43.08" height="12.02"/>
    <rect class="cls-17" x="45.72" y="429.98" width="43.08" height="12.02"/>
    <rect class="cls-26" x="45.72" y="447.84" width="43.08" height="12.02"/>
    <rect class="cls-26" x="45.72" y="465.71" width="43.08" height="12.02"/>
    <rect class="cls-26" x="45.72" y="483.58" width="43.08" height="12.02"/>
    <rect class="cls-26" x="45.72" y="501.45" width="43.08" height="12.02"/>
    <rect class="cls-4" x="45.72" y="519.31" width="43.08" height="12.02"/>
    <rect class="cls-4" x="45.72" y="537.18" width="43.08" height="12.02"/>
    <rect class="cls-4" x="45.72" y="555.05" width="43.08" height="12.02"/>
    <rect class="cls-4" x="45.72" y="572.91" width="43.08" height="12.02"/>
    <rect class="cls-4" x="45.72" y="590.78" width="43.08" height="12.02"/>
    <rect class="cls-17" x="238.35" y="322.77" width="43.08" height="12.02"/>
    <rect class="cls-17" x="238.35" y="340.64" width="43.08" height="12.02"/>
    <rect class="cls-17" x="238.35" y="358.51" width="43.08" height="12.02"/>
    <rect class="cls-16" x="238.35" y="376.38" width="43.08" height="12.02"/>
    <rect class="cls-36" x="238.35" y="394.24" width="43.08" height="12.02"/>
    <rect class="cls-32" x="238.35" y="412.11" width="43.08" height="12.02"/>
    <rect class="cls-3" x="238.35" y="429.98" width="43.08" height="12.02"/>
    <rect class="cls-15" x="238.35" y="447.84" width="43.08" height="12.02"/>
    <rect class="cls-15" x="238.35" y="465.71" width="43.08" height="12.02"/>
    <rect class="cls-27" x="238.35" y="483.58" width="43.08" height="12.02"/>
    <rect class="cls-26" x="238.35" y="501.45" width="43.08" height="12.02"/>
    <rect class="cls-34" x="238.35" y="519.31" width="43.08" height="12.02"/>
    <rect class="cls-4" x="238.35" y="537.18" width="43.08" height="12.02"/>
    <rect class="cls-4" x="238.35" y="555.05" width="43.08" height="12.02"/>
    <rect class="cls-4" x="238.35" y="572.91" width="43.08" height="12.02"/>
    <rect class="cls-4" x="238.35" y="590.78" width="43.08" height="12.02"/>
    <circle class="cls-14" cx="387.7" cy="337.23" r="6"/>
    <circle class="cls-14" cx="409.53" cy="337.23" r="6"/>
    <circle class="cls-14" cx="431.37" cy="337.23" r="6"/>
    <circle class="cls-14" cx="453.2" cy="337.23" r="6"/>
    <circle class="cls-14" cx="475.04" cy="337.23" r="6"/>
    <circle class="cls-14" cx="408.03" cy="431.7" r="6"/>
    <rect class="cls-14" x="383.56" y="388.4" width="6.4" height="21.86"/>
    <rect class="cls-14" x="398.83" y="396.2" width="6.4" height="14.83"/>
    <rect class="cls-14" x="414.1" y="383.18" width="6.4" height="27.85"/>
    <rect class="cls-14" x="429.37" y="394.79" width="6.4" height="16.24"/>
    <rect class="cls-14" x="444.64" y="394.79" width="6.4" height="16.24"/>
    <rect class="cls-14" x="459.91" y="396.2" width="6.4" height="14.83"/>
    <rect class="cls-14" x="475.18" y="393.87" width="6.4" height="16.39"/>
    <line class="cls-31" x1="521.77" y1="431.7" x2="622.85" y2="431.7"/>
    <circle class="cls-37" cx="527.98" cy="337.23" r="6"/>
    <circle class="cls-37" cx="549.82" cy="337.23" r="6"/>
    <circle class="cls-37" cx="571.65" cy="337.23" r="6"/>
    <circle class="cls-37" cx="593.49" cy="337.23" r="6"/>
    <circle class="cls-37" cx="615.33" cy="337.23" r="6"/>
    <circle class="cls-37" cx="584.27" cy="431.7" r="6"/>
    <rect class="cls-37" x="523.84" y="387.92" width="6.4" height="22.34"/>
    <rect class="cls-37" x="539.11" y="394.79" width="6.4" height="16.24"/>
    <rect class="cls-37" x="554.38" y="376.47" width="6.4" height="34.55"/>
    <rect class="cls-37" x="569.65" y="393.75" width="6.4" height="17.28"/>
    <rect class="cls-37" x="584.93" y="383.13" width="6.4" height="27.9"/>
    <rect class="cls-37" x="600.2" y="396.2" width="6.4" height="14.83"/>
    <rect class="cls-37" x="615.47" y="391.04" width="6.4" height="19.22"/>
    <line class="cls-33" x1="523.09" y1="628.13" x2="579.51" y2="628.13"/>
    <circle class="cls-20" cx="529.09" cy="528.96" r="6"/>
    <circle class="cls-20" cx="550.93" cy="528.96" r="6"/>
    <circle class="cls-20" cx="572.76" cy="528.96" r="6"/>
    <circle class="cls-20" cx="594.6" cy="528.96" r="6"/>
    <circle class="cls-20" cx="616.43" cy="528.96" r="6"/>
    <circle class="cls-20" cx="559.98" cy="628.13" r="6"/>
    <rect class="cls-20" x="525.16" y="581.63" width="6.4" height="25.06"/>
    <rect class="cls-20" x="540.43" y="568.38" width="6.4" height="39.08"/>
    <rect class="cls-20" x="555.7" y="559.51" width="6.4" height="47.95"/>
    <rect class="cls-20" x="570.97" y="601.06" width="6.4" height="6.4"/>
    <rect class="cls-20" x="586.24" y="603.29" width="6.4" height="4.17"/>
    <rect class="cls-20" x="601.51" y="590.83" width="6.4" height="16.63"/>
    <rect class="cls-20" x="616.78" y="599.14" width="6.4" height="7.55"/>
    <line class="cls-19" x1="382.4" y1="628.6" x2="436.68" y2="628.6"/>
    <circle class="cls-7" cx="388.4" cy="529.43" r="6"/>
    <circle class="cls-7" cx="410.23" cy="529.43" r="6"/>
    <circle class="cls-7" cx="432.07" cy="529.43" r="6"/>
    <circle class="cls-7" cx="453.9" cy="529.43" r="6"/>
    <path class="cls-7" d="M475.74,523.43c3.31,0,6,2.69,6,6s-2.69,6-6,6-6-2.69-6-6,2.69-6,6-6"/>
    <path class="cls-7" d="M391.62,634.6c-3.31,0-6-2.69-6-6s2.69-6,6-6,6,2.69,6,6-2.69,6-6,6"/>
    <rect class="cls-7" x="384.47" y="585.37" width="6.4" height="21.79"/>
    <rect class="cls-7" x="399.74" y="591.7" width="6.4" height="16.24"/>
    <rect class="cls-7" x="415.01" y="574.29" width="6.4" height="33.64"/>
    <rect class="cls-7" x="430.28" y="597.56" width="6.4" height="10.38"/>
    <rect class="cls-7" x="445.55" y="602.74" width="6.4" height="5.19"/>
    <rect class="cls-7" x="460.82" y="599.01" width="6.4" height="8.92"/>
    <rect class="cls-7" x="476.09" y="585.37" width="6.4" height="21.79"/>
    <line class="cls-19" x1="474.89" y1="628.6" x2="482.49" y2="628.6"/>
    <line class="cls-2" x1="444.29" y1="622.6" x2="444.29" y2="634.6"/>
    <line class="cls-2" x1="451.9" y1="622.6" x2="451.9" y2="634.6"/>
    <line class="cls-2" x1="460.82" y1="622.6" x2="460.82" y2="634.6"/>
    <line class="cls-2" x1="468.83" y1="622.6" x2="468.83" y2="634.6"/>
    <line class="cls-33" x1="616.05" y1="628.13" x2="624.31" y2="628.13"/>
    <line class="cls-9" x1="584.86" y1="628.6" x2="587.63" y2="628.6"/>
    <line class="cls-9" x1="593.21" y1="628.6" x2="595.98" y2="628.6"/>
    <line class="cls-9" x1="601.57" y1="628.13" x2="604.33" y2="628.13"/>
    <line class="cls-9" x1="609.05" y1="628.6" x2="611.81" y2="628.6"/>
    <rect class="cls-13" x="1021.31" y="286.4" width="59.53" height="20.35" rx="4.06" ry="4.06"/>
    <rect class="cls-13" x="1021.31" y="319.33" width="59.53" height="20.35" rx="4.06" ry="4.06"/>
    <rect class="cls-13" x="1021.31" y="352.26" width="59.53" height="20.35" rx="4.06" ry="4.06"/>
    <rect class="cls-13" x="1021.27" y="385.2" width="59.53" height="20.35" rx="4.06" ry="4.06"/>
    <rect class="cls-8" x="1021.31" y="418.13" width="59.53" height="20.35" rx="4.06" ry="4.06"/>
    <rect class="cls-8" x="1021.31" y="451.06" width="59.53" height="20.35" rx="4.06" ry="4.06"/>
    <rect class="cls-41" x="1021.27" y="483.99" width="59.53" height="20.35" rx="4.06" ry="4.06"/>
    <rect class="cls-41" x="1021.27" y="516.92" width="59.53" height="20.35" rx="4.06" ry="4.06"/>
    <rect class="cls-41" x="1021.31" y="549.85" width="59.53" height="20.35" rx="4.06" ry="4.06"/>
    <rect class="cls-21" x="1021.31" y="582.79" width="59.53" height="20.35" rx="4.06" ry="4.06"/>
    <rect class="cls-21" x="1021.27" y="615.72" width="59.53" height="20.35" rx="4.06" ry="4.06"/>
    <rect class="cls-13" x="1113.9" y="286.4" width="59.53" height="20.35" rx="4.06" ry="4.06"/>
    <rect class="cls-13" x="1113.9" y="319.33" width="59.53" height="20.35" rx="4.06" ry="4.06"/>
    <g>
      <rect class="cls-44" x="1113.9" y="352.26" width="59.53" height="20.35" rx="4.06" ry="4.06"/>
      <rect class="cls-11" x="1113.9" y="352.26" width="59.53" height="20.35" rx="4.06" ry="4.06"/>
    </g>
    <g>
      <rect class="cls-47" x="1113.87" y="385.2" width="59.53" height="20.35" rx="4.06" ry="4.06"/>
      <rect class="cls-11" x="1113.87" y="385.2" width="59.53" height="20.35" rx="4.06" ry="4.06"/>
    </g>
    <rect class="cls-8" x="1113.9" y="418.13" width="59.53" height="20.35" rx="4.06" ry="4.06"/>
    <rect class="cls-8" x="1113.9" y="451.06" width="59.53" height="20.35" rx="4.06" ry="4.06"/>
    <g>
      <rect class="cls-46" x="1113.87" y="483.99" width="59.53" height="20.35" rx="4.06" ry="4.06"/>
      <rect class="cls-23" x="1113.87" y="483.99" width="59.53" height="20.35" rx="4.06" ry="4.06"/>
    </g>
    <g>
      <rect class="cls-46" x="1113.87" y="516.92" width="59.53" height="20.35" rx="4.06" ry="4.06"/>
      <rect class="cls-23" x="1113.87" y="516.92" width="59.53" height="20.35" rx="4.06" ry="4.06"/>
    </g>
    <g>
      <rect class="cls-46" x="1113.9" y="549.85" width="59.53" height="20.35" rx="4.06" ry="4.06"/>
      <rect class="cls-23" x="1113.9" y="549.85" width="59.53" height="20.35" rx="4.06" ry="4.06"/>
    </g>
    <rect class="cls-21" x="1113.9" y="582.79" width="59.53" height="20.35" rx="4.06" ry="4.06"/>
    <g>
      <rect class="cls-45" x="1113.87" y="615.72" width="59.53" height="20.35" rx="4.06" ry="4.06"/>
      <rect class="cls-5" x="1113.87" y="615.72" width="59.53" height="20.35" rx="4.06" ry="4.06"/>
    </g>
    <rect class="cls-35" x="1213.94" y="306.54" width="14" height="14"/>
    <rect class="cls-35" x="1235.19" y="306.54" width="14" height="14"/>
    <rect class="cls-35" x="1256.44" y="306.54" width="14" height="14"/>
    <rect class="cls-35" x="1213.94" y="332.68" width="14" height="14"/>
    <rect class="cls-35" x="1235.19" y="332.68" width="14" height="14"/>
    <rect class="cls-35" x="1256.44" y="332.68" width="14" height="14"/>
    <rect class="cls-35" x="1213.94" y="358.61" width="14" height="14"/>
    <rect class="cls-35" x="1235.19" y="358.61" width="14" height="14"/>
    <rect class="cls-35" x="1256.44" y="358.61" width="14" height="14"/>
    <rect class="cls-30" x="1212.81" y="398.88" width="14" height="14"/>
    <rect class="cls-30" x="1234.06" y="398.88" width="14" height="14"/>
    <rect class="cls-30" x="1255.31" y="398.88" width="14" height="14"/>
    <rect class="cls-30" x="1212.81" y="425.02" width="14" height="14"/>
    <rect class="cls-30" x="1234.06" y="425.02" width="14" height="14"/>
    <rect class="cls-30" x="1255.31" y="425.02" width="14" height="14"/>
    <rect class="cls-30" x="1212.81" y="450.96" width="14" height="14"/>
    <rect class="cls-30" x="1234.06" y="450.96" width="14" height="14"/>
    <rect class="cls-30" x="1255.31" y="450.96" width="14" height="14"/>
    <rect class="cls-40" x="1212.81" y="491.22" width="14" height="14"/>
    <rect class="cls-40" x="1234.06" y="491.22" width="14" height="14"/>
    <rect class="cls-40" x="1255.31" y="491.22" width="14" height="14"/>
    <rect class="cls-40" x="1212.81" y="517.37" width="14" height="14"/>
    <rect class="cls-40" x="1234.06" y="517.37" width="14" height="14"/>
    <rect class="cls-40" x="1255.31" y="517.37" width="14" height="14"/>
    <rect class="cls-40" x="1212.81" y="543.3" width="14" height="14"/>
    <rect class="cls-40" x="1234.06" y="543.3" width="14" height="14"/>
    <rect class="cls-40" x="1255.31" y="543.3" width="14" height="14"/>
    <rect class="cls-12" x="1214.17" y="592.85" width="14" height="14"/>
    <rect class="cls-12" x="1235.41" y="592.85" width="14" height="14"/>
    <rect class="cls-12" x="1256.66" y="592.85" width="14" height="14"/>
    <rect class="cls-12" x="1214.17" y="619" width="14" height="14"/>
    <rect class="cls-12" x="1235.41" y="619" width="14" height="14"/>
    <rect class="cls-12" x="1256.66" y="619" width="14" height="14"/>
    <rect class="cls-13" x="1376.64" y="402.67" width="35.4" height="14.68"/>
    <rect class="cls-8" x="1376.64" y="467.94" width="35.4" height="14.44"/>
    <rect class="cls-6" x="1376.64" y="533.12" width="35.4" height="14.37"/>
    <rect class="cls-13" x="1376.64" y="422.84" width="35.4" height="14.68"/>
    <rect class="cls-13" x="1376.64" y="443.61" width="35.4" height="14.68"/>
    <rect class="cls-8" x="1376.64" y="488.69" width="35.4" height="14.44"/>
    <rect class="cls-8" x="1376.64" y="510.15" width="35.4" height="14.44"/>
    <rect class="cls-6" x="1376.64" y="556.03" width="35.4" height="14.37"/>
    <rect class="cls-13" x="1540.62" y="402.64" width="35.4" height="14.68"/>
    <rect class="cls-8" x="1540.62" y="467.9" width="35.4" height="14.44"/>
    <rect class="cls-6" x="1540.62" y="533.09" width="35.4" height="14.37"/>
    <rect class="cls-13" x="1540.62" y="422.8" width="35.4" height="14.68"/>
    <rect class="cls-13" x="1540.62" y="443.58" width="35.4" height="14.68"/>
    <rect class="cls-8" x="1540.62" y="488.65" width="35.4" height="14.44"/>
    <rect class="cls-8" x="1540.62" y="510.11" width="35.4" height="14.44"/>
    <rect class="cls-6" x="1540.62" y="555.99" width="35.4" height="14.37"/>
  </g>

  <g id="codex-panel-labels" font-family="Helvetica, Arial, sans-serif" font-size="25" font-weight="600" fill="#202124" text-anchor="middle">
  <text x="165" y="218">Backdoored</text>
  <text x="505" y="218">Probes</text>
  <text x="835" y="218">Ranking</text>
  <text x="1150" y="218">Materialize</text>
  <text x="1495" y="218">Compressed</text>
  </g>

  <g id="codex-stage-notes" font-family="Helvetica, Arial, sans-serif" font-size="15.5" font-weight="500" text-anchor="middle" fill="#70757a">
  <text x="165" y="260">unsafe rank directions</text>
  <text x="505" y="260">TH / H / TB / B probes</text>
  <text x="835" y="260">counterfactual score</text>
  <text x="1150" y="260">prune | shrink | INT8</text>
  <text x="1495" y="260">attack suppressed</text>
  </g>
</svg>